<svg xmlns="http://www.w3.org/2000/svg" viewBox="0 0 100 100">
  <rect width="100" height="100" rx="22" fill="#0e2238"/>
  <!-- humps -->
  <path d="M8 84 a9 9 0 0 1 18 0 Z" fill="#2e8149"/>
  <path d="M24 84 a11 11 0 0 1 22 0 Z" fill="#3fa860"/>
  <!-- neck -->
  <path d="M38 84 C40 62 42 50 56 40" stroke="#3fa860" stroke-width="21" stroke-linecap="round" fill="none"/>
  <!-- head -->
  <ellipse cx="60" cy="36" rx="17" ry="14" fill="#3fa860"/>
  <ellipse cx="72" cy="39" rx="9.5" ry="7.5" fill="#3fa860"/>
  <!-- muzzle -->
  <ellipse cx="71" cy="41" rx="8" ry="5.5" fill="#f3e9c8"/>
  <circle cx="77.5" cy="36.5" r="1.3" fill="#2e8149"/>
  <!-- smile -->
  <path d="M68 43 q4 3 8 1" stroke="#1d5c33" stroke-width="1.8" stroke-linecap="round" fill="none"/>
  <!-- eye -->
  <ellipse cx="63" cy="32" rx="5" ry="5.6" fill="#fff"/>
  <circle cx="64.6" cy="32.4" r="2.7" fill="#1d2733"/>
  <circle cx="65.6" cy="31.2" r="0.9" fill="#fff"/>
  <!-- scutes -->
  <path d="M52 26 q3 -8 10 -4 l-6 6 Z" fill="#2a7d45"/>
  <path d="M45 34 q0 -9 8 -7 l-4 8 Z" fill="#2a7d45"/>
  <path d="M40 46 q-2 -9 6 -9 l-2 9 Z" fill="#2a7d45"/>
  <!-- waterline -->
  <path d="M4 86 q6 -4 12 0 t12 0 t12 0 t12 0 t12 0 t12 0 t12 0 t12 0 v14 h-96 Z" fill="#2a5f8a"/>
</svg>
